<svg xmlns="http://www.w3.org/2000/svg" width="1200" height="1200" viewBox="0 0 1200 1200">
<rect width="1200" height="1200" fill="#ffffff"/>
<rect x="6" y="6" width="1188" height="1188" fill="none" stroke="#0d1117" stroke-width="12" rx="28"/>
<g transform="translate(270,270) scale(17.83783783783784)"><path d="M0,0h1v1h-1zM1,0h1v1h-1zM2,0h1v1h-1zM3,0h1v1h-1zM4,0h1v1h-1zM5,0h1v1h-1zM6,0h1v1h-1zM9,0h1v1h-1zM13,0h1v1h-1zM15,0h1v1h-1zM18,0h1v1h-1zM20,0h1v1h-1zM21,0h1v1h-1zM22,0h1v1h-1zM26,0h1v1h-1zM30,0h1v1h-1zM31,0h1v1h-1zM32,0h1v1h-1zM33,0h1v1h-1zM34,0h1v1h-1zM35,0h1v1h-1zM36,0h1v1h-1zM0,1h1v1h-1zM6,1h1v1h-1zM8,1h1v1h-1zM9,1h1v1h-1zM11,1h1v1h-1zM13,1h1v1h-1zM15,1h1v1h-1zM17,1h1v1h-1zM18,1h1v1h-1zM20,1h1v1h-1zM21,1h1v1h-1zM22,1h1v1h-1zM23,1h1v1h-1zM24,1h1v1h-1zM28,1h1v1h-1zM30,1h1v1h-1zM36,1h1v1h-1zM0,2h1v1h-1zM2,2h1v1h-1zM3,2h1v1h-1zM4,2h1v1h-1zM6,2h1v1h-1zM8,2h1v1h-1zM9,2h1v1h-1zM10,2h1v1h-1zM13,2h1v1h-1zM15,2h1v1h-1zM18,2h1v1h-1zM19,2h1v1h-1zM25,2h1v1h-1zM27,2h1v1h-1zM30,2h1v1h-1zM32,2h1v1h-1zM33,2h1v1h-1zM34,2h1v1h-1zM36,2h1v1h-1zM0,3h1v1h-1zM2,3h1v1h-1zM3,3h1v1h-1zM4,3h1v1h-1zM6,3h1v1h-1zM8,3h1v1h-1zM10,3h1v1h-1zM12,3h1v1h-1zM13,3h1v1h-1zM17,3h1v1h-1zM18,3h1v1h-1zM19,3h1v1h-1zM20,3h1v1h-1zM22,3h1v1h-1zM23,3h1v1h-1zM25,3h1v1h-1zM26,3h1v1h-1zM27,3h1v1h-1zM30,3h1v1h-1zM32,3h1v1h-1zM33,3h1v1h-1zM34,3h1v1h-1zM36,3h1v1h-1zM0,4h1v1h-1zM2,4h1v1h-1zM3,4h1v1h-1zM4,4h1v1h-1zM6,4h1v1h-1zM8,4h1v1h-1zM9,4h1v1h-1zM12,4h1v1h-1zM14,4h1v1h-1zM16,4h1v1h-1zM17,4h1v1h-1zM20,4h1v1h-1zM21,4h1v1h-1zM24,4h1v1h-1zM25,4h1v1h-1zM26,4h1v1h-1zM28,4h1v1h-1zM30,4h1v1h-1zM32,4h1v1h-1zM33,4h1v1h-1zM34,4h1v1h-1zM36,4h1v1h-1zM0,5h1v1h-1zM6,5h1v1h-1zM8,5h1v1h-1zM10,5h1v1h-1zM14,5h1v1h-1zM17,5h1v1h-1zM28,5h1v1h-1zM30,5h1v1h-1zM36,5h1v1h-1zM0,6h1v1h-1zM1,6h1v1h-1zM2,6h1v1h-1zM3,6h1v1h-1zM4,6h1v1h-1zM5,6h1v1h-1zM6,6h1v1h-1zM8,6h1v1h-1zM10,6h1v1h-1zM12,6h1v1h-1zM14,6h1v1h-1zM16,6h1v1h-1zM18,6h1v1h-1zM20,6h1v1h-1zM22,6h1v1h-1zM24,6h1v1h-1zM26,6h1v1h-1zM28,6h1v1h-1zM30,6h1v1h-1zM31,6h1v1h-1zM32,6h1v1h-1zM33,6h1v1h-1zM34,6h1v1h-1zM35,6h1v1h-1zM36,6h1v1h-1zM11,7h1v1h-1zM13,7h1v1h-1zM14,7h1v1h-1zM15,7h1v1h-1zM21,7h1v1h-1zM22,7h1v1h-1zM24,7h1v1h-1zM26,7h1v1h-1zM27,7h1v1h-1zM28,7h1v1h-1zM2,8h1v1h-1zM5,8h1v1h-1zM6,8h1v1h-1zM7,8h1v1h-1zM8,8h1v1h-1zM9,8h1v1h-1zM10,8h1v1h-1zM11,8h1v1h-1zM12,8h1v1h-1zM13,8h1v1h-1zM14,8h1v1h-1zM18,8h1v1h-1zM21,8h1v1h-1zM23,8h1v1h-1zM24,8h1v1h-1zM25,8h1v1h-1zM26,8h1v1h-1zM28,8h1v1h-1zM29,8h1v1h-1zM31,8h1v1h-1zM32,8h1v1h-1zM33,8h1v1h-1zM34,8h1v1h-1zM35,8h1v1h-1zM0,9h1v1h-1zM1,9h1v1h-1zM4,9h1v1h-1zM5,9h1v1h-1zM10,9h1v1h-1zM14,9h1v1h-1zM15,9h1v1h-1zM17,9h1v1h-1zM18,9h1v1h-1zM21,9h1v1h-1zM24,9h1v1h-1zM25,9h1v1h-1zM26,9h1v1h-1zM28,9h1v1h-1zM29,9h1v1h-1zM36,9h1v1h-1zM2,10h1v1h-1zM3,10h1v1h-1zM4,10h1v1h-1zM5,10h1v1h-1zM6,10h1v1h-1zM7,10h1v1h-1zM9,10h1v1h-1zM10,10h1v1h-1zM11,10h1v1h-1zM13,10h1v1h-1zM15,10h1v1h-1zM17,10h1v1h-1zM18,10h1v1h-1zM19,10h1v1h-1zM20,10h1v1h-1zM21,10h1v1h-1zM23,10h1v1h-1zM28,10h1v1h-1zM29,10h1v1h-1zM30,10h1v1h-1zM32,10h1v1h-1zM33,10h1v1h-1zM36,10h1v1h-1zM0,11h1v1h-1zM2,11h1v1h-1zM4,11h1v1h-1zM8,11h1v1h-1zM11,11h1v1h-1zM12,11h1v1h-1zM16,11h1v1h-1zM17,11h1v1h-1zM21,11h1v1h-1zM22,11h1v1h-1zM24,11h1v1h-1zM26,11h1v1h-1zM27,11h1v1h-1zM28,11h1v1h-1zM35,11h1v1h-1zM36,11h1v1h-1zM0,12h1v1h-1zM2,12h1v1h-1zM4,12h1v1h-1zM6,12h1v1h-1zM8,12h1v1h-1zM9,12h1v1h-1zM10,12h1v1h-1zM11,12h1v1h-1zM12,12h1v1h-1zM14,12h1v1h-1zM15,12h1v1h-1zM16,12h1v1h-1zM17,12h1v1h-1zM18,12h1v1h-1zM20,12h1v1h-1zM22,12h1v1h-1zM28,12h1v1h-1zM30,12h1v1h-1zM33,12h1v1h-1zM36,12h1v1h-1zM0,13h1v1h-1zM1,13h1v1h-1zM2,13h1v1h-1zM4,13h1v1h-1zM5,13h1v1h-1zM9,13h1v1h-1zM10,13h1v1h-1zM11,13h1v1h-1zM15,13h1v1h-1zM16,13h1v1h-1zM17,13h1v1h-1zM19,13h1v1h-1zM20,13h1v1h-1zM23,13h1v1h-1zM27,13h1v1h-1zM28,13h1v1h-1zM29,13h1v1h-1zM30,13h1v1h-1zM31,13h1v1h-1zM34,13h1v1h-1zM36,13h1v1h-1zM1,14h1v1h-1zM2,14h1v1h-1zM6,14h1v1h-1zM10,14h1v1h-1zM11,14h1v1h-1zM13,14h1v1h-1zM14,14h1v1h-1zM18,14h1v1h-1zM19,14h1v1h-1zM20,14h1v1h-1zM23,14h1v1h-1zM25,14h1v1h-1zM26,14h1v1h-1zM27,14h1v1h-1zM28,14h1v1h-1zM29,14h1v1h-1zM30,14h1v1h-1zM31,14h1v1h-1zM32,14h1v1h-1zM33,14h1v1h-1zM34,14h1v1h-1zM36,14h1v1h-1zM0,15h1v1h-1zM3,15h1v1h-1zM4,15h1v1h-1zM5,15h1v1h-1zM8,15h1v1h-1zM12,15h1v1h-1zM14,15h1v1h-1zM15,15h1v1h-1zM17,15h1v1h-1zM20,15h1v1h-1zM21,15h1v1h-1zM22,15h1v1h-1zM23,15h1v1h-1zM26,15h1v1h-1zM27,15h1v1h-1zM28,15h1v1h-1zM30,15h1v1h-1zM32,15h1v1h-1zM33,15h1v1h-1zM35,15h1v1h-1zM0,16h1v1h-1zM3,16h1v1h-1zM5,16h1v1h-1zM6,16h1v1h-1zM8,16h1v1h-1zM11,16h1v1h-1zM14,16h1v1h-1zM16,16h1v1h-1zM19,16h1v1h-1zM20,16h1v1h-1zM22,16h1v1h-1zM24,16h1v1h-1zM28,16h1v1h-1zM30,16h1v1h-1zM35,16h1v1h-1zM0,17h1v1h-1zM1,17h1v1h-1zM3,17h1v1h-1zM4,17h1v1h-1zM5,17h1v1h-1zM8,17h1v1h-1zM10,17h1v1h-1zM13,17h1v1h-1zM14,17h1v1h-1zM16,17h1v1h-1zM17,17h1v1h-1zM18,17h1v1h-1zM21,17h1v1h-1zM25,17h1v1h-1zM27,17h1v1h-1zM28,17h1v1h-1zM30,17h1v1h-1zM31,17h1v1h-1zM36,17h1v1h-1zM0,18h1v1h-1zM1,18h1v1h-1zM3,18h1v1h-1zM4,18h1v1h-1zM5,18h1v1h-1zM6,18h1v1h-1zM8,18h1v1h-1zM12,18h1v1h-1zM14,18h1v1h-1zM15,18h1v1h-1zM16,18h1v1h-1zM18,18h1v1h-1zM21,18h1v1h-1zM22,18h1v1h-1zM23,18h1v1h-1zM24,18h1v1h-1zM27,18h1v1h-1zM28,18h1v1h-1zM30,18h1v1h-1zM32,18h1v1h-1zM33,18h1v1h-1zM36,18h1v1h-1zM1,19h1v1h-1zM3,19h1v1h-1zM5,19h1v1h-1zM7,19h1v1h-1zM9,19h1v1h-1zM11,19h1v1h-1zM13,19h1v1h-1zM15,19h1v1h-1zM17,19h1v1h-1zM18,19h1v1h-1zM19,19h1v1h-1zM20,19h1v1h-1zM22,19h1v1h-1zM23,19h1v1h-1zM26,19h1v1h-1zM29,19h1v1h-1zM33,19h1v1h-1zM35,19h1v1h-1zM36,19h1v1h-1zM1,20h1v1h-1zM2,20h1v1h-1zM4,20h1v1h-1zM5,20h1v1h-1zM6,20h1v1h-1zM7,20h1v1h-1zM8,20h1v1h-1zM9,20h1v1h-1zM10,20h1v1h-1zM11,20h1v1h-1zM13,20h1v1h-1zM15,20h1v1h-1zM18,20h1v1h-1zM20,20h1v1h-1zM26,20h1v1h-1zM28,20h1v1h-1zM30,20h1v1h-1zM35,20h1v1h-1zM36,20h1v1h-1zM2,21h1v1h-1zM3,21h1v1h-1zM7,21h1v1h-1zM9,21h1v1h-1zM11,21h1v1h-1zM12,21h1v1h-1zM15,21h1v1h-1zM16,21h1v1h-1zM18,21h1v1h-1zM22,21h1v1h-1zM23,21h1v1h-1zM24,21h1v1h-1zM25,21h1v1h-1zM27,21h1v1h-1zM30,21h1v1h-1zM31,21h1v1h-1zM34,21h1v1h-1zM35,21h1v1h-1zM2,22h1v1h-1zM3,22h1v1h-1zM4,22h1v1h-1zM6,22h1v1h-1zM8,22h1v1h-1zM13,22h1v1h-1zM15,22h1v1h-1zM18,22h1v1h-1zM19,22h1v1h-1zM22,22h1v1h-1zM27,22h1v1h-1zM28,22h1v1h-1zM31,22h1v1h-1zM32,22h1v1h-1zM34,22h1v1h-1zM36,22h1v1h-1zM0,23h1v1h-1zM1,23h1v1h-1zM2,23h1v1h-1zM4,23h1v1h-1zM5,23h1v1h-1zM7,23h1v1h-1zM13,23h1v1h-1zM14,23h1v1h-1zM16,23h1v1h-1zM18,23h1v1h-1zM19,23h1v1h-1zM22,23h1v1h-1zM23,23h1v1h-1zM25,23h1v1h-1zM27,23h1v1h-1zM30,23h1v1h-1zM31,23h1v1h-1zM33,23h1v1h-1zM35,23h1v1h-1zM1,24h1v1h-1zM2,24h1v1h-1zM4,24h1v1h-1zM6,24h1v1h-1zM7,24h1v1h-1zM11,24h1v1h-1zM14,24h1v1h-1zM15,24h1v1h-1zM19,24h1v1h-1zM20,24h1v1h-1zM23,24h1v1h-1zM24,24h1v1h-1zM25,24h1v1h-1zM31,24h1v1h-1zM32,24h1v1h-1zM35,24h1v1h-1zM36,24h1v1h-1zM1,25h1v1h-1zM2,25h1v1h-1zM7,25h1v1h-1zM8,25h1v1h-1zM9,25h1v1h-1zM11,25h1v1h-1zM14,25h1v1h-1zM15,25h1v1h-1zM16,25h1v1h-1zM17,25h1v1h-1zM19,25h1v1h-1zM20,25h1v1h-1zM21,25h1v1h-1zM24,25h1v1h-1zM25,25h1v1h-1zM31,25h1v1h-1zM32,25h1v1h-1zM33,25h1v1h-1zM34,25h1v1h-1zM36,25h1v1h-1zM0,26h1v1h-1zM1,26h1v1h-1zM2,26h1v1h-1zM3,26h1v1h-1zM4,26h1v1h-1zM5,26h1v1h-1zM6,26h1v1h-1zM9,26h1v1h-1zM12,26h1v1h-1zM14,26h1v1h-1zM15,26h1v1h-1zM16,26h1v1h-1zM18,26h1v1h-1zM19,26h1v1h-1zM21,26h1v1h-1zM22,26h1v1h-1zM24,26h1v1h-1zM25,26h1v1h-1zM26,26h1v1h-1zM27,26h1v1h-1zM29,26h1v1h-1zM30,26h1v1h-1zM31,26h1v1h-1zM36,26h1v1h-1zM3,27h1v1h-1zM5,27h1v1h-1zM8,27h1v1h-1zM9,27h1v1h-1zM11,27h1v1h-1zM13,27h1v1h-1zM17,27h1v1h-1zM23,27h1v1h-1zM24,27h1v1h-1zM29,27h1v1h-1zM30,27h1v1h-1zM31,27h1v1h-1zM32,27h1v1h-1zM36,27h1v1h-1zM0,28h1v1h-1zM1,28h1v1h-1zM5,28h1v1h-1zM6,28h1v1h-1zM9,28h1v1h-1zM10,28h1v1h-1zM11,28h1v1h-1zM12,28h1v1h-1zM13,28h1v1h-1zM14,28h1v1h-1zM17,28h1v1h-1zM19,28h1v1h-1zM21,28h1v1h-1zM22,28h1v1h-1zM24,28h1v1h-1zM27,28h1v1h-1zM28,28h1v1h-1zM29,28h1v1h-1zM30,28h1v1h-1zM31,28h1v1h-1zM32,28h1v1h-1zM33,28h1v1h-1zM34,28h1v1h-1zM8,29h1v1h-1zM10,29h1v1h-1zM11,29h1v1h-1zM16,29h1v1h-1zM19,29h1v1h-1zM20,29h1v1h-1zM21,29h1v1h-1zM22,29h1v1h-1zM24,29h1v1h-1zM28,29h1v1h-1zM32,29h1v1h-1zM33,29h1v1h-1zM36,29h1v1h-1zM0,30h1v1h-1zM1,30h1v1h-1zM2,30h1v1h-1zM3,30h1v1h-1zM4,30h1v1h-1zM5,30h1v1h-1zM6,30h1v1h-1zM8,30h1v1h-1zM11,30h1v1h-1zM14,30h1v1h-1zM15,30h1v1h-1zM16,30h1v1h-1zM18,30h1v1h-1zM19,30h1v1h-1zM23,30h1v1h-1zM25,30h1v1h-1zM28,30h1v1h-1zM30,30h1v1h-1zM32,30h1v1h-1zM33,30h1v1h-1zM34,30h1v1h-1zM36,30h1v1h-1zM0,31h1v1h-1zM6,31h1v1h-1zM8,31h1v1h-1zM9,31h1v1h-1zM11,31h1v1h-1zM15,31h1v1h-1zM16,31h1v1h-1zM17,31h1v1h-1zM28,31h1v1h-1zM32,31h1v1h-1zM33,31h1v1h-1zM35,31h1v1h-1zM0,32h1v1h-1zM2,32h1v1h-1zM3,32h1v1h-1zM4,32h1v1h-1zM6,32h1v1h-1zM9,32h1v1h-1zM10,32h1v1h-1zM11,32h1v1h-1zM12,32h1v1h-1zM13,32h1v1h-1zM14,32h1v1h-1zM16,32h1v1h-1zM17,32h1v1h-1zM19,32h1v1h-1zM20,32h1v1h-1zM21,32h1v1h-1zM22,32h1v1h-1zM23,32h1v1h-1zM26,32h1v1h-1zM27,32h1v1h-1zM28,32h1v1h-1zM29,32h1v1h-1zM30,32h1v1h-1zM31,32h1v1h-1zM32,32h1v1h-1zM35,32h1v1h-1zM0,33h1v1h-1zM2,33h1v1h-1zM3,33h1v1h-1zM4,33h1v1h-1zM6,33h1v1h-1zM9,33h1v1h-1zM10,33h1v1h-1zM11,33h1v1h-1zM12,33h1v1h-1zM13,33h1v1h-1zM14,33h1v1h-1zM19,33h1v1h-1zM25,33h1v1h-1zM28,33h1v1h-1zM32,33h1v1h-1zM36,33h1v1h-1zM0,34h1v1h-1zM2,34h1v1h-1zM3,34h1v1h-1zM4,34h1v1h-1zM6,34h1v1h-1zM8,34h1v1h-1zM12,34h1v1h-1zM15,34h1v1h-1zM17,34h1v1h-1zM18,34h1v1h-1zM19,34h1v1h-1zM20,34h1v1h-1zM22,34h1v1h-1zM23,34h1v1h-1zM27,34h1v1h-1zM28,34h1v1h-1zM32,34h1v1h-1zM33,34h1v1h-1zM35,34h1v1h-1zM36,34h1v1h-1zM0,35h1v1h-1zM6,35h1v1h-1zM12,35h1v1h-1zM13,35h1v1h-1zM15,35h1v1h-1zM16,35h1v1h-1zM18,35h1v1h-1zM19,35h1v1h-1zM22,35h1v1h-1zM26,35h1v1h-1zM28,35h1v1h-1zM33,35h1v1h-1zM0,36h1v1h-1zM1,36h1v1h-1zM2,36h1v1h-1zM3,36h1v1h-1zM4,36h1v1h-1zM5,36h1v1h-1zM6,36h1v1h-1zM9,36h1v1h-1zM10,36h1v1h-1zM12,36h1v1h-1zM15,36h1v1h-1zM17,36h1v1h-1zM19,36h1v1h-1zM21,36h1v1h-1zM23,36h1v1h-1zM25,36h1v1h-1zM28,36h1v1h-1zM30,36h1v1h-1zM32,36h1v1h-1zM33,36h1v1h-1zM36,36h1v1h-1z" fill="#000000"/></g>
<path d="M81,173 H173 V81" fill="none" stroke="#0d1117" stroke-width="13" stroke-linecap="square"/>
<path d="M1119,173 H1027 V81" fill="none" stroke="#0d1117" stroke-width="13" stroke-linecap="square"/>
<path d="M81,1027 H173 V1119" fill="none" stroke="#0d1117" stroke-width="13" stroke-linecap="square"/>
<path d="M1119,1027 H1027 V1119" fill="none" stroke="#0d1117" stroke-width="13" stroke-linecap="square"/>
<path d="M1060.7577685993165,1065.5676055178046 h13.68333612009883 v13.68333612009883 h13.68333612009883 v13.68333612009883 h-13.68333612009883 v13.68333612009883 h-13.68333612009883 v-13.68333612009883 h-13.68333612009883 v-13.68333612009883 h13.68333612009883 Z" fill="#8250df" transform="rotate(200 1067.599436659366 1086.0926096979529)"/>
<circle cx="92.1080232784152" cy="327.903351620771" r="13.3243676063139" fill="#e5484d"/>
<path d="M57.48712514061481,1017.9398688676301 L70.72381054493599,1044.4132396762725 L44.25043973629363,1044.4132396762725 Z" fill="#8250df" transform="rotate(150 57.48712514061481 1031.1765542719513)"/>
<rect x="1084.9772617130075" y="1003.3843823291827" width="21.427902271505445" height="21.427902271505445" fill="#46a758" transform="rotate(52 1095.6912128487602 1014.0983334649354)"/>
<circle cx="1155.6014740420505" cy="79.97841081116349" r="16.634797445498407" fill="none" stroke="#8250df" stroke-width="6.653918978199362"/>
<path d="M1099.0939430047292,856.3692294226494 h10.096305731218308 v10.096305731218308 h10.096305731218308 v10.096305731218308 h-10.096305731218308 v10.096305731218308 h-10.096305731218308 v-10.096305731218308 h-10.096305731218308 v-10.096305731218308 h10.096305731218308 Z" fill="#f5a623" transform="rotate(97 1104.1420958703384 871.5136880194768)"/>
<circle cx="161.72925744205713" cy="453.2748515205458" r="9.749177631223574" fill="none" stroke="#f5a623" stroke-width="4"/>
<path d="M149.52749636024237,803.9067166219465 L160.71427346533164,826.2802708321251 L138.3407192551531,826.2802708321251 Z" fill="#46a758" transform="rotate(356 149.52749636024237 815.0934937270358)"/>
<path d="M122.78298986144364,156.38296553422697 L138.18286862201057,187.18272305536084 L107.3831111008767,187.18272305536084 Z" fill="#f5a623" transform="rotate(291 122.78298986144364 171.7828442947939)"/>
<circle cx="73.97691115736961" cy="502.9447366995737" r="23.442639774642885" fill="#8250df"/>
<path d="M1152.8519313321449,389.49132055649534 h7.446383218280971 v7.446383218280971 h7.446383218280971 v7.446383218280971 h-7.446383218280971 v7.446383218280971 h-7.446383218280971 v-7.446383218280971 h-7.446383218280971 v-7.446383218280971 h7.446383218280971 Z" fill="#46a758" transform="rotate(335 1156.5751229412854 400.6608953839168)"/>
<circle cx="61.80240145884454" cy="1133.3403467014432" r="14.793208193499595" fill="#8250df"/>
<rect x="1086.5509009282105" y="652.0058816545643" width="37.39964279998094" height="37.39964279998094" fill="#f5a623" transform="rotate(348 1105.250722328201 670.7057030545548)"/>
<rect x="1024.0121735623106" y="111.71157325990498" width="40.796888407319784" height="40.796888407319784" fill="#46a758" transform="rotate(205 1044.4106177659705 132.11001746356487)"/>
<circle cx="1068.8638509437442" cy="844.4162929616868" r="12.078550212085247" fill="none" stroke="#f5a623" stroke-width="4.8314200848340985"/>
<path d="M1137.7448762767017,448.20183526631445 L1152.392588677816,477.49726006854326 L1123.0971638755873,477.49726006854326 Z" fill="#e5484d" transform="rotate(267 1137.7448762767017 462.84954766742885)"/>
<path d="M1074.109579785727,338.388261918677 L1084.5998240376357,359.3687504224945 L1063.6193355338182,359.3687504224945 Z" fill="#46a758" transform="rotate(171 1074.109579785727 348.87850617058575)"/>
<path d="M29.431384422816336,127.70673315413296 h14.714170241728425 v14.714170241728425 h14.714170241728425 v14.714170241728425 h-14.714170241728425 v14.714170241728425 h-14.714170241728425 v-14.714170241728425 h-14.714170241728425 v-14.714170241728425 h14.714170241728425 Z" fill="#0d1117" transform="rotate(289 36.78846954368055 149.7779885167256)"/>
<path d="M1104.4067295028362,209.01970022614114 h9.401827446650714 v9.401827446650714 h9.401827446650714 v9.401827446650714 h-9.401827446650714 v9.401827446650714 h-9.401827446650714 v-9.401827446650714 h-9.401827446650714 v-9.401827446650714 h9.401827446650714 Z" fill="#e5484d" transform="rotate(79 1109.1076432261616 223.1224413961172)"/>
<path d="M72.98309635533951,933.3641263938043 h15.207212200853974 v15.207212200853974 h15.207212200853974 v15.207212200853974 h-15.207212200853974 v15.207212200853974 h-15.207212200853974 v-15.207212200853974 h-15.207212200853974 v-15.207212200853974 h15.207212200853974 Z" fill="#f5a623" transform="rotate(307 80.5867024557665 956.1749446950853)"/>
<path d="M149.66335268039256,320.5283764740452 h8.626621797680855 v8.626621797680855 h8.626621797680855 v8.626621797680855 h-8.626621797680855 v8.626621797680855 h-8.626621797680855 v-8.626621797680855 h-8.626621797680855 v-8.626621797680855 h8.626621797680855 Z" fill="#2f81f7" transform="rotate(118 153.976663579233 333.4683091705665)"/>
<circle cx="1139.9008015030995" cy="854.2160597350448" r="14.24203650536947" fill="#0d1117"/>
<path d="M1136.1112149739638,1052.0578527348116 h7.6077951062470675 v7.6077951062470675 h7.6077951062470675 v7.6077951062470675 h-7.6077951062470675 v7.6077951062470675 h-7.6077951062470675 v-7.6077951062470675 h-7.6077951062470675 v-7.6077951062470675 h7.6077951062470675 Z" fill="#f5a623" transform="rotate(84 1139.9151125270873 1063.4695453941822)"/>
<rect x="1118.8052692953497" y="711.2425785223022" width="18.216860761865973" height="18.216860761865973" fill="#f5a623" transform="rotate(258 1127.9136996762827 720.3510089032352)"/>
<circle cx="43.114451500587165" cy="742.0004078513011" r="22.665830480167642" fill="#2f81f7"/>
<path d="M55.8084752317518,24.924756401684135 L74.53530924255028,62.3784244232811 L37.081641220953315,62.3784244232811 Z" fill="#8250df" transform="rotate(56 55.8084752317518 43.65159041248262)"/>
<path d="M1113.0379143455066,757.7739157215692 h15.74888517986983 v15.74888517986983 h15.74888517986983 v15.74888517986983 h-15.74888517986983 v15.74888517986983 h-15.74888517986983 v-15.74888517986983 h-15.74888517986983 v-15.74888517986983 h15.74888517986983 Z" fill="#8250df" transform="rotate(212 1120.9123569354415 781.397243491374)"/>
<circle cx="1139.3147542281076" cy="40.32326619140804" r="11.241646265611053" fill="none" stroke="#8250df" stroke-width="4.496658506244421"/>
<circle cx="1095.4409348918125" cy="1166.0173216788098" r="14.255543868988752" fill="#2f81f7"/>
<path d="M1080.4893030847888,577.0257968225051 h7.892926238942891 v7.892926238942891 h7.892926238942891 v7.892926238942891 h-7.892926238942891 v7.892926238942891 h-7.892926238942891 v-7.892926238942891 h-7.892926238942891 v-7.892926238942891 h7.892926238942891 Z" fill="#46a758" transform="rotate(150 1084.4357662042603 588.8651861809194)"/>
<path d="M60.3648688159883,587.749708224088 h10.395761210471392 v10.395761210471392 h10.395761210471392 v10.395761210471392 h-10.395761210471392 v10.395761210471392 h-10.395761210471392 v-10.395761210471392 h-10.395761210471392 v-10.395761210471392 h10.395761210471392 Z" fill="#46a758" transform="rotate(139 65.562749421224 603.343350039795)"/>
<rect x="981.0935097795445" y="1143.674567863578" width="24.30197193240747" height="24.30197193240747" fill="#0d1117" transform="rotate(78 993.2444957457483 1155.8255538297817)"/>
<rect x="135.59568729624152" y="613.7466034283862" width="31.692187182605267" height="31.692187182605267" fill="#8250df" transform="rotate(191 151.44178088754416 629.5926970196888)"/>
<path d="M145.58100714348257,852.308228331618 L155.15536746103317,871.4569489667192 L136.00664682593197,871.4569489667192 Z" fill="#46a758" transform="rotate(149 145.58100714348257 861.8825886491686)"/>
<path d="M1128.9905194628518,551.6390079308767 h8.322080417070538 v8.322080417070538 h8.322080417070538 v8.322080417070538 h-8.322080417070538 v8.322080417070538 h-8.322080417070538 v-8.322080417070538 h-8.322080417070538 v-8.322080417070538 h8.322080417070538 Z" fill="#f5a623" transform="rotate(84 1133.151559671387 564.1221285564825)"/>
<circle cx="1153.9209366822615" cy="990.3217786503956" r="21.615828624693677" fill="none" stroke="#f5a623" stroke-width="8.64633144987747"/>
<path d="M979.9187791480217,1070.1046572604682 h7.141110172029585 v7.141110172029585 h7.141110172029585 v7.141110172029585 h-7.141110172029585 v7.141110172029585 h-7.141110172029585 v-7.141110172029585 h-7.141110172029585 v-7.141110172029585 h7.141110172029585 Z" fill="#2f81f7" transform="rotate(327 983.4893342340365 1080.8163225185126)"/>
<path d="M58.5043027298525,188.10062295547687 L70.84377853875048,212.77957457327284 L46.16482692095451,212.77957457327284 Z" fill="#0d1117" transform="rotate(292 58.5043027298525 200.44009876437485)"/>
<rect x="1107.6007855301723" y="941.2644146326929" width="22.70299668610096" height="22.70299668610096" fill="#f5a623" transform="rotate(79 1118.9522838732228 952.6159129757434)"/>
<rect x="1139.460215118248" y="516.7894416921772" width="18.337089733220637" height="18.337089733220637" fill="#e5484d" transform="rotate(22 1148.6287599848583 525.9579865587875)"/>
<rect x="1032.5746198478155" y="248.74571080924943" width="20.03660822007805" height="20.03660822007805" fill="#46a758" transform="rotate(164 1042.5929239578545 258.76401491928846)"/>
<rect x="144.37146719684824" y="695.5439464668743" width="23.004001376219094" height="23.004001376219094" fill="#0d1117" transform="rotate(31 155.8734678849578 707.0459471549839)"/>
<path d="M169.59140756097622,1033.9326346318703 h13.03129889210686 v13.03129889210686 h13.03129889210686 v13.03129889210686 h-13.03129889210686 v13.03129889210686 h-13.03129889210686 v-13.03129889210686 h-13.03129889210686 v-13.03129889210686 h13.03129889210686 Z" fill="#46a758" transform="rotate(280 176.10705700702965 1053.4795829700306)"/>
<rect x="87.65961499325931" y="416.47584995627403" width="23.64641397446394" height="23.64641397446394" fill="#e5484d" transform="rotate(338 99.48282198049128 428.299056943506)"/>
<path d="M126.4765428705141,231.41901007527485 L145.1320947180502,268.7301137703471 L107.82099102297798,268.7301137703471 Z" fill="#2f81f7" transform="rotate(215 126.4765428705141 250.07456192281097)"/>
<path d="M39.29369284003042,327.21078090858646 h7.849472422618419 v7.849472422618419 h7.849472422618419 v7.849472422618419 h-7.849472422618419 v7.849472422618419 h-7.849472422618419 v-7.849472422618419 h-7.849472422618419 v-7.849472422618419 h7.849472422618419 Z" fill="#46a758" transform="rotate(241 43.218429051339626 338.9849895425141)"/>
<rect x="1022.9425362884067" y="947.2450699252076" width="43.05632119718939" height="43.05632119718939" fill="#0d1117" transform="rotate(296 1044.4706968870014 968.7732305238023)"/>
<path d="M106.43850859068334,31.125453863292933 h8.799347266554832 v8.799347266554832 h8.799347266554832 v8.799347266554832 h-8.799347266554832 v8.799347266554832 h-8.799347266554832 v-8.799347266554832 h-8.799347266554832 v-8.799347266554832 h8.799347266554832 Z" fill="#f5a623" transform="rotate(325 110.83818222396076 44.32447476312518)"/>
<path d="M112.36517833080143,818.1529381570872 L124.12594946776517,841.6744804310147 L100.60440719383769,841.6744804310147 Z" fill="#8250df" transform="rotate(359 112.36517833080143 829.9137092940509)"/>
<path d="M141.94743873830885,568.6549338502809 h11.163323376327753 v11.163323376327753 h11.163323376327753 v11.163323376327753 h-11.163323376327753 v11.163323376327753 h-11.163323376327753 v-11.163323376327753 h-11.163323376327753 v-11.163323376327753 h11.163323376327753 Z" fill="#2f81f7" transform="rotate(244 147.52910042647272 585.3999189147726)"/>
<circle cx="208.71651506982744" cy="1134.0584359131753" r="14.349284444237128" fill="none" stroke="#46a758" stroke-width="5.739713777694851"/>
<path d="M1114.9441678309813,109.20730224950239 L1127.2511255820282,133.82121775159612 L1102.6372100799344,133.82121775159612 Z" fill="#46a758" transform="rotate(206 1114.9441678309813 121.51426000054926)"/>
<rect x="1092.50302523165" y="324.9284794020932" width="18.898327727336437" height="18.898327727336437" fill="#2f81f7" transform="rotate(293 1101.9521890953183 334.37764326576144)"/>
<circle cx="1046.3961516413838" cy="913.5158509248868" r="16.652597258565947" fill="#2f81f7"/>
<path d="M1037.3294263752177,450.9638926482294 L1050.8837491271552,478.07253815210424 L1023.7751036232803,478.07253815210424 Z" fill="#e5484d" transform="rotate(159 1037.3294263752177 464.5182154001668)"/>
<circle cx="53.90114090871066" cy="300.22306309081614" r="15.290307731833309" fill="none" stroke="#0d1117" stroke-width="6.116123092733323"/>
<circle cx="1019.2431220365688" cy="1098.051618472673" r="18.288976772222668" fill="#46a758"/>
<path d="M74.22444619238377,801.8227397594601 L91.45148893911391,836.2768252529204 L56.99740344565362,836.2768252529204 Z" fill="#8250df" transform="rotate(11 74.22444619238377 819.0497825061902)"/>
<circle cx="991.3469378929585" cy="1038.3263176493347" r="17.05022079613991" fill="none" stroke="#e5484d" stroke-width="6.820088318455964"/>
<path d="M152.32600214425474,1085.3217032309622 L175.77413168828934,1132.2179623190314 L128.87787260022014,1132.2179623190314 Z" fill="#0d1117" transform="rotate(45 152.32600214425474 1108.7698327749968)"/>
<text x="600" y="84" text-anchor="middle" font-family="Arial, sans-serif" font-size="50" font-weight="bold" fill="#0d1117">HIIBRARAHMAD</text>
<text x="600" y="138" text-anchor="middle" font-family="Arial, sans-serif" font-size="32" fill="#2f81f7" font-weight="bold">SCAN WITH YOUR CAMERA — AR INSIDE</text>
<text x="600" y="1092" text-anchor="middle" font-family="Arial, sans-serif" font-size="30" fill="#57606a">Keep the code in view after scanning</text>
<text x="600" y="1138" text-anchor="middle" font-family="Consolas, monospace" font-size="26" fill="#8b949e">hiibrarahmad.github.io/QAR/</text>
</svg>