<svg xmlns="http://www.w3.org/2000/svg" width="1200" height="1200" viewBox="0 0 1200 1200">
<rect width="1200" height="1200" fill="#ffffff"/>
<rect x="6" y="6" width="1188" height="1188" fill="none" stroke="#0d1117" stroke-width="12" rx="28"/>
<g transform="translate(270,270) scale(17.83783783783784)"><path d="M0,0h1v1h-1zM1,0h1v1h-1zM2,0h1v1h-1zM3,0h1v1h-1zM4,0h1v1h-1zM5,0h1v1h-1zM6,0h1v1h-1zM9,0h1v1h-1zM13,0h1v1h-1zM15,0h1v1h-1zM18,0h1v1h-1zM20,0h1v1h-1zM21,0h1v1h-1zM22,0h1v1h-1zM26,0h1v1h-1zM30,0h1v1h-1zM31,0h1v1h-1zM32,0h1v1h-1zM33,0h1v1h-1zM34,0h1v1h-1zM35,0h1v1h-1zM36,0h1v1h-1zM0,1h1v1h-1zM6,1h1v1h-1zM8,1h1v1h-1zM9,1h1v1h-1zM11,1h1v1h-1zM13,1h1v1h-1zM15,1h1v1h-1zM17,1h1v1h-1zM18,1h1v1h-1zM20,1h1v1h-1zM21,1h1v1h-1zM22,1h1v1h-1zM23,1h1v1h-1zM24,1h1v1h-1zM28,1h1v1h-1zM30,1h1v1h-1zM36,1h1v1h-1zM0,2h1v1h-1zM2,2h1v1h-1zM3,2h1v1h-1zM4,2h1v1h-1zM6,2h1v1h-1zM8,2h1v1h-1zM9,2h1v1h-1zM10,2h1v1h-1zM13,2h1v1h-1zM15,2h1v1h-1zM18,2h1v1h-1zM19,2h1v1h-1zM25,2h1v1h-1zM27,2h1v1h-1zM30,2h1v1h-1zM32,2h1v1h-1zM33,2h1v1h-1zM34,2h1v1h-1zM36,2h1v1h-1zM0,3h1v1h-1zM2,3h1v1h-1zM3,3h1v1h-1zM4,3h1v1h-1zM6,3h1v1h-1zM8,3h1v1h-1zM10,3h1v1h-1zM12,3h1v1h-1zM13,3h1v1h-1zM17,3h1v1h-1zM18,3h1v1h-1zM19,3h1v1h-1zM20,3h1v1h-1zM22,3h1v1h-1zM23,3h1v1h-1zM25,3h1v1h-1zM26,3h1v1h-1zM27,3h1v1h-1zM30,3h1v1h-1zM32,3h1v1h-1zM33,3h1v1h-1zM34,3h1v1h-1zM36,3h1v1h-1zM0,4h1v1h-1zM2,4h1v1h-1zM3,4h1v1h-1zM4,4h1v1h-1zM6,4h1v1h-1zM8,4h1v1h-1zM9,4h1v1h-1zM12,4h1v1h-1zM14,4h1v1h-1zM16,4h1v1h-1zM17,4h1v1h-1zM20,4h1v1h-1zM21,4h1v1h-1zM24,4h1v1h-1zM25,4h1v1h-1zM26,4h1v1h-1zM28,4h1v1h-1zM30,4h1v1h-1zM32,4h1v1h-1zM33,4h1v1h-1zM34,4h1v1h-1zM36,4h1v1h-1zM0,5h1v1h-1zM6,5h1v1h-1zM8,5h1v1h-1zM10,5h1v1h-1zM14,5h1v1h-1zM17,5h1v1h-1zM28,5h1v1h-1zM30,5h1v1h-1zM36,5h1v1h-1zM0,6h1v1h-1zM1,6h1v1h-1zM2,6h1v1h-1zM3,6h1v1h-1zM4,6h1v1h-1zM5,6h1v1h-1zM6,6h1v1h-1zM8,6h1v1h-1zM10,6h1v1h-1zM12,6h1v1h-1zM14,6h1v1h-1zM16,6h1v1h-1zM18,6h1v1h-1zM20,6h1v1h-1zM22,6h1v1h-1zM24,6h1v1h-1zM26,6h1v1h-1zM28,6h1v1h-1zM30,6h1v1h-1zM31,6h1v1h-1zM32,6h1v1h-1zM33,6h1v1h-1zM34,6h1v1h-1zM35,6h1v1h-1zM36,6h1v1h-1zM11,7h1v1h-1zM13,7h1v1h-1zM14,7h1v1h-1zM15,7h1v1h-1zM21,7h1v1h-1zM22,7h1v1h-1zM24,7h1v1h-1zM26,7h1v1h-1zM27,7h1v1h-1zM28,7h1v1h-1zM2,8h1v1h-1zM5,8h1v1h-1zM6,8h1v1h-1zM7,8h1v1h-1zM8,8h1v1h-1zM9,8h1v1h-1zM10,8h1v1h-1zM11,8h1v1h-1zM12,8h1v1h-1zM13,8h1v1h-1zM14,8h1v1h-1zM18,8h1v1h-1zM21,8h1v1h-1zM23,8h1v1h-1zM24,8h1v1h-1zM25,8h1v1h-1zM26,8h1v1h-1zM28,8h1v1h-1zM29,8h1v1h-1zM31,8h1v1h-1zM32,8h1v1h-1zM33,8h1v1h-1zM34,8h1v1h-1zM35,8h1v1h-1zM0,9h1v1h-1zM1,9h1v1h-1zM4,9h1v1h-1zM5,9h1v1h-1zM10,9h1v1h-1zM14,9h1v1h-1zM15,9h1v1h-1zM17,9h1v1h-1zM18,9h1v1h-1zM21,9h1v1h-1zM24,9h1v1h-1zM25,9h1v1h-1zM26,9h1v1h-1zM28,9h1v1h-1zM29,9h1v1h-1zM36,9h1v1h-1zM2,10h1v1h-1zM3,10h1v1h-1zM4,10h1v1h-1zM5,10h1v1h-1zM6,10h1v1h-1zM7,10h1v1h-1zM9,10h1v1h-1zM10,10h1v1h-1zM11,10h1v1h-1zM13,10h1v1h-1zM15,10h1v1h-1zM17,10h1v1h-1zM18,10h1v1h-1zM19,10h1v1h-1zM20,10h1v1h-1zM21,10h1v1h-1zM23,10h1v1h-1zM28,10h1v1h-1zM29,10h1v1h-1zM30,10h1v1h-1zM32,10h1v1h-1zM33,10h1v1h-1zM36,10h1v1h-1zM0,11h1v1h-1zM2,11h1v1h-1zM4,11h1v1h-1zM8,11h1v1h-1zM11,11h1v1h-1zM12,11h1v1h-1zM16,11h1v1h-1zM17,11h1v1h-1zM21,11h1v1h-1zM22,11h1v1h-1zM24,11h1v1h-1zM26,11h1v1h-1zM27,11h1v1h-1zM28,11h1v1h-1zM35,11h1v1h-1zM36,11h1v1h-1zM0,12h1v1h-1zM2,12h1v1h-1zM4,12h1v1h-1zM6,12h1v1h-1zM8,12h1v1h-1zM9,12h1v1h-1zM10,12h1v1h-1zM11,12h1v1h-1zM12,12h1v1h-1zM14,12h1v1h-1zM15,12h1v1h-1zM16,12h1v1h-1zM17,12h1v1h-1zM18,12h1v1h-1zM20,12h1v1h-1zM22,12h1v1h-1zM28,12h1v1h-1zM30,12h1v1h-1zM33,12h1v1h-1zM36,12h1v1h-1zM0,13h1v1h-1zM1,13h1v1h-1zM2,13h1v1h-1zM4,13h1v1h-1zM5,13h1v1h-1zM9,13h1v1h-1zM10,13h1v1h-1zM11,13h1v1h-1zM15,13h1v1h-1zM16,13h1v1h-1zM17,13h1v1h-1zM19,13h1v1h-1zM20,13h1v1h-1zM23,13h1v1h-1zM27,13h1v1h-1zM28,13h1v1h-1zM29,13h1v1h-1zM30,13h1v1h-1zM31,13h1v1h-1zM34,13h1v1h-1zM36,13h1v1h-1zM1,14h1v1h-1zM2,14h1v1h-1zM6,14h1v1h-1zM10,14h1v1h-1zM11,14h1v1h-1zM13,14h1v1h-1zM14,14h1v1h-1zM18,14h1v1h-1zM19,14h1v1h-1zM20,14h1v1h-1zM23,14h1v1h-1zM25,14h1v1h-1zM26,14h1v1h-1zM27,14h1v1h-1zM28,14h1v1h-1zM29,14h1v1h-1zM30,14h1v1h-1zM31,14h1v1h-1zM32,14h1v1h-1zM33,14h1v1h-1zM34,14h1v1h-1zM36,14h1v1h-1zM0,15h1v1h-1zM3,15h1v1h-1zM4,15h1v1h-1zM5,15h1v1h-1zM8,15h1v1h-1zM12,15h1v1h-1zM14,15h1v1h-1zM15,15h1v1h-1zM17,15h1v1h-1zM20,15h1v1h-1zM21,15h1v1h-1zM22,15h1v1h-1zM23,15h1v1h-1zM26,15h1v1h-1zM27,15h1v1h-1zM28,15h1v1h-1zM30,15h1v1h-1zM32,15h1v1h-1zM33,15h1v1h-1zM35,15h1v1h-1zM0,16h1v1h-1zM3,16h1v1h-1zM5,16h1v1h-1zM6,16h1v1h-1zM8,16h1v1h-1zM11,16h1v1h-1zM14,16h1v1h-1zM16,16h1v1h-1zM19,16h1v1h-1zM20,16h1v1h-1zM22,16h1v1h-1zM24,16h1v1h-1zM28,16h1v1h-1zM30,16h1v1h-1zM35,16h1v1h-1zM0,17h1v1h-1zM1,17h1v1h-1zM3,17h1v1h-1zM4,17h1v1h-1zM5,17h1v1h-1zM8,17h1v1h-1zM10,17h1v1h-1zM13,17h1v1h-1zM14,17h1v1h-1zM16,17h1v1h-1zM17,17h1v1h-1zM18,17h1v1h-1zM21,17h1v1h-1zM25,17h1v1h-1zM27,17h1v1h-1zM28,17h1v1h-1zM30,17h1v1h-1zM31,17h1v1h-1zM36,17h1v1h-1zM0,18h1v1h-1zM1,18h1v1h-1zM3,18h1v1h-1zM4,18h1v1h-1zM5,18h1v1h-1zM6,18h1v1h-1zM8,18h1v1h-1zM12,18h1v1h-1zM14,18h1v1h-1zM15,18h1v1h-1zM16,18h1v1h-1zM18,18h1v1h-1zM21,18h1v1h-1zM22,18h1v1h-1zM23,18h1v1h-1zM24,18h1v1h-1zM27,18h1v1h-1zM28,18h1v1h-1zM30,18h1v1h-1zM32,18h1v1h-1zM33,18h1v1h-1zM36,18h1v1h-1zM1,19h1v1h-1zM3,19h1v1h-1zM5,19h1v1h-1zM7,19h1v1h-1zM9,19h1v1h-1zM11,19h1v1h-1zM13,19h1v1h-1zM15,19h1v1h-1zM17,19h1v1h-1zM18,19h1v1h-1zM19,19h1v1h-1zM20,19h1v1h-1zM22,19h1v1h-1zM23,19h1v1h-1zM26,19h1v1h-1zM29,19h1v1h-1zM33,19h1v1h-1zM35,19h1v1h-1zM36,19h1v1h-1zM1,20h1v1h-1zM2,20h1v1h-1zM4,20h1v1h-1zM5,20h1v1h-1zM6,20h1v1h-1zM7,20h1v1h-1zM8,20h1v1h-1zM9,20h1v1h-1zM10,20h1v1h-1zM11,20h1v1h-1zM13,20h1v1h-1zM15,20h1v1h-1zM18,20h1v1h-1zM20,20h1v1h-1zM26,20h1v1h-1zM28,20h1v1h-1zM30,20h1v1h-1zM35,20h1v1h-1zM36,20h1v1h-1zM2,21h1v1h-1zM3,21h1v1h-1zM7,21h1v1h-1zM9,21h1v1h-1zM11,21h1v1h-1zM12,21h1v1h-1zM15,21h1v1h-1zM16,21h1v1h-1zM18,21h1v1h-1zM22,21h1v1h-1zM23,21h1v1h-1zM24,21h1v1h-1zM25,21h1v1h-1zM27,21h1v1h-1zM30,21h1v1h-1zM31,21h1v1h-1zM34,21h1v1h-1zM35,21h1v1h-1zM2,22h1v1h-1zM3,22h1v1h-1zM4,22h1v1h-1zM6,22h1v1h-1zM8,22h1v1h-1zM13,22h1v1h-1zM15,22h1v1h-1zM18,22h1v1h-1zM19,22h1v1h-1zM22,22h1v1h-1zM27,22h1v1h-1zM28,22h1v1h-1zM31,22h1v1h-1zM32,22h1v1h-1zM34,22h1v1h-1zM36,22h1v1h-1zM0,23h1v1h-1zM1,23h1v1h-1zM2,23h1v1h-1zM4,23h1v1h-1zM5,23h1v1h-1zM7,23h1v1h-1zM13,23h1v1h-1zM14,23h1v1h-1zM16,23h1v1h-1zM18,23h1v1h-1zM19,23h1v1h-1zM22,23h1v1h-1zM23,23h1v1h-1zM25,23h1v1h-1zM27,23h1v1h-1zM30,23h1v1h-1zM31,23h1v1h-1zM33,23h1v1h-1zM35,23h1v1h-1zM1,24h1v1h-1zM2,24h1v1h-1zM4,24h1v1h-1zM6,24h1v1h-1zM7,24h1v1h-1zM11,24h1v1h-1zM14,24h1v1h-1zM15,24h1v1h-1zM19,24h1v1h-1zM20,24h1v1h-1zM23,24h1v1h-1zM24,24h1v1h-1zM25,24h1v1h-1zM31,24h1v1h-1zM32,24h1v1h-1zM35,24h1v1h-1zM36,24h1v1h-1zM1,25h1v1h-1zM2,25h1v1h-1zM7,25h1v1h-1zM8,25h1v1h-1zM9,25h1v1h-1zM11,25h1v1h-1zM14,25h1v1h-1zM15,25h1v1h-1zM16,25h1v1h-1zM17,25h1v1h-1zM19,25h1v1h-1zM20,25h1v1h-1zM21,25h1v1h-1zM24,25h1v1h-1zM25,25h1v1h-1zM31,25h1v1h-1zM32,25h1v1h-1zM33,25h1v1h-1zM34,25h1v1h-1zM36,25h1v1h-1zM0,26h1v1h-1zM1,26h1v1h-1zM2,26h1v1h-1zM3,26h1v1h-1zM4,26h1v1h-1zM5,26h1v1h-1zM6,26h1v1h-1zM9,26h1v1h-1zM12,26h1v1h-1zM14,26h1v1h-1zM15,26h1v1h-1zM16,26h1v1h-1zM18,26h1v1h-1zM19,26h1v1h-1zM21,26h1v1h-1zM22,26h1v1h-1zM24,26h1v1h-1zM25,26h1v1h-1zM26,26h1v1h-1zM27,26h1v1h-1zM29,26h1v1h-1zM30,26h1v1h-1zM31,26h1v1h-1zM36,26h1v1h-1zM3,27h1v1h-1zM5,27h1v1h-1zM8,27h1v1h-1zM9,27h1v1h-1zM11,27h1v1h-1zM13,27h1v1h-1zM17,27h1v1h-1zM23,27h1v1h-1zM24,27h1v1h-1zM29,27h1v1h-1zM30,27h1v1h-1zM31,27h1v1h-1zM32,27h1v1h-1zM36,27h1v1h-1zM0,28h1v1h-1zM1,28h1v1h-1zM5,28h1v1h-1zM6,28h1v1h-1zM9,28h1v1h-1zM10,28h1v1h-1zM11,28h1v1h-1zM12,28h1v1h-1zM13,28h1v1h-1zM14,28h1v1h-1zM17,28h1v1h-1zM19,28h1v1h-1zM21,28h1v1h-1zM22,28h1v1h-1zM24,28h1v1h-1zM27,28h1v1h-1zM28,28h1v1h-1zM29,28h1v1h-1zM30,28h1v1h-1zM31,28h1v1h-1zM32,28h1v1h-1zM33,28h1v1h-1zM34,28h1v1h-1zM8,29h1v1h-1zM10,29h1v1h-1zM11,29h1v1h-1zM16,29h1v1h-1zM19,29h1v1h-1zM20,29h1v1h-1zM21,29h1v1h-1zM22,29h1v1h-1zM24,29h1v1h-1zM28,29h1v1h-1zM32,29h1v1h-1zM33,29h1v1h-1zM36,29h1v1h-1zM0,30h1v1h-1zM1,30h1v1h-1zM2,30h1v1h-1zM3,30h1v1h-1zM4,30h1v1h-1zM5,30h1v1h-1zM6,30h1v1h-1zM8,30h1v1h-1zM11,30h1v1h-1zM14,30h1v1h-1zM15,30h1v1h-1zM16,30h1v1h-1zM18,30h1v1h-1zM19,30h1v1h-1zM23,30h1v1h-1zM25,30h1v1h-1zM28,30h1v1h-1zM30,30h1v1h-1zM32,30h1v1h-1zM33,30h1v1h-1zM34,30h1v1h-1zM36,30h1v1h-1zM0,31h1v1h-1zM6,31h1v1h-1zM8,31h1v1h-1zM9,31h1v1h-1zM11,31h1v1h-1zM15,31h1v1h-1zM16,31h1v1h-1zM17,31h1v1h-1zM28,31h1v1h-1zM32,31h1v1h-1zM33,31h1v1h-1zM35,31h1v1h-1zM0,32h1v1h-1zM2,32h1v1h-1zM3,32h1v1h-1zM4,32h1v1h-1zM6,32h1v1h-1zM9,32h1v1h-1zM10,32h1v1h-1zM11,32h1v1h-1zM12,32h1v1h-1zM13,32h1v1h-1zM14,32h1v1h-1zM16,32h1v1h-1zM17,32h1v1h-1zM19,32h1v1h-1zM20,32h1v1h-1zM21,32h1v1h-1zM22,32h1v1h-1zM23,32h1v1h-1zM26,32h1v1h-1zM27,32h1v1h-1zM28,32h1v1h-1zM29,32h1v1h-1zM30,32h1v1h-1zM31,32h1v1h-1zM32,32h1v1h-1zM35,32h1v1h-1zM0,33h1v1h-1zM2,33h1v1h-1zM3,33h1v1h-1zM4,33h1v1h-1zM6,33h1v1h-1zM9,33h1v1h-1zM10,33h1v1h-1zM11,33h1v1h-1zM12,33h1v1h-1zM13,33h1v1h-1zM14,33h1v1h-1zM19,33h1v1h-1zM25,33h1v1h-1zM28,33h1v1h-1zM32,33h1v1h-1zM36,33h1v1h-1zM0,34h1v1h-1zM2,34h1v1h-1zM3,34h1v1h-1zM4,34h1v1h-1zM6,34h1v1h-1zM8,34h1v1h-1zM12,34h1v1h-1zM15,34h1v1h-1zM17,34h1v1h-1zM18,34h1v1h-1zM19,34h1v1h-1zM20,34h1v1h-1zM22,34h1v1h-1zM23,34h1v1h-1zM27,34h1v1h-1zM28,34h1v1h-1zM32,34h1v1h-1zM33,34h1v1h-1zM35,34h1v1h-1zM36,34h1v1h-1zM0,35h1v1h-1zM6,35h1v1h-1zM12,35h1v1h-1zM13,35h1v1h-1zM15,35h1v1h-1zM16,35h1v1h-1zM18,35h1v1h-1zM19,35h1v1h-1zM22,35h1v1h-1zM26,35h1v1h-1zM28,35h1v1h-1zM33,35h1v1h-1zM0,36h1v1h-1zM1,36h1v1h-1zM2,36h1v1h-1zM3,36h1v1h-1zM4,36h1v1h-1zM5,36h1v1h-1zM6,36h1v1h-1zM9,36h1v1h-1zM10,36h1v1h-1zM12,36h1v1h-1zM15,36h1v1h-1zM17,36h1v1h-1zM19,36h1v1h-1zM21,36h1v1h-1zM23,36h1v1h-1zM25,36h1v1h-1zM28,36h1v1h-1zM30,36h1v1h-1zM32,36h1v1h-1zM33,36h1v1h-1zM36,36h1v1h-1z" fill="#000000"/></g>
<path d="M63,173 H173 V63" fill="none" stroke="#0d1117" stroke-width="20" stroke-linecap="square"/>
<path d="M1137,173 H1027 V63" fill="none" stroke="#0d1117" stroke-width="20" stroke-linecap="square"/>
<path d="M63,1027 H173 V1137" fill="none" stroke="#0d1117" stroke-width="20" stroke-linecap="square"/>
<path d="M1137,1027 H1027 V1137" fill="none" stroke="#0d1117" stroke-width="20" stroke-linecap="square"/>
<path d="M1061.425278801471,1061.137113666162 h18.91111482679844 v18.91111482679844 h18.91111482679844 v18.91111482679844 h-18.91111482679844 v18.91111482679844 h-18.91111482679844 v-18.91111482679844 h-18.91111482679844 v-18.91111482679844 h18.91111482679844 Z" fill="#8250df" transform="rotate(200 1070.8808362148702 1089.5037859063596)"/>
<circle cx="88.54386905580759" cy="325.9939014567062" r="18.7658234750852" fill="#e5484d"/>
<path d="M53.680017246864736,1015.5534407803789 L72.32893111929297,1052.8512685252354 L35.0311033744365,1052.8512685252354 Z" fill="#8250df" transform="rotate(150 53.680017246864736 1034.2023546528071)"/>
<rect x="1083.8844794947654" y="1001.7190185012296" width="30.57053636200726" height="30.57053636200726" fill="#46a758" transform="rotate(52 1099.169747675769 1017.0042866822332)"/>
<circle cx="1159.5004317546263" cy="76.32913650106639" r="23.17972992733121" fill="none" stroke="#8250df" stroke-width="9.271891970932483"/>
<path d="M1100.6157313187916,852.226435771212 h14.128407641624412 v14.12840764162441 h14.12840764162441 v14.128407641624412 h-14.12840764162441 v14.12840764162441 h-14.128407641624412 v-14.12840764162441 h-14.12840764162441 v-14.128407641624412 h14.12840764162441 Z" fill="#f5a623" transform="rotate(97 1107.679935139604 873.4190472336486)"/>
<circle cx="158.65367328375578" cy="452.2452013557777" r="13.998903508298099" fill="none" stroke="#f5a623" stroke-width="5.59956140331924"/>
<path d="M146.36628580838442,800.6872189464048 L162.28198861517012,832.5186245599762 L130.45058300159872,832.5186245599762 Z" fill="#46a758" transform="rotate(356 146.36628580838442 816.6029217531905)"/>
<path d="M119.4340985622257,147.2446399424225 L140.9672702429816,190.31098330393434 L97.90092688146979,190.31098330393434 Z" fill="#f5a623" transform="rotate(291 119.4340985622257 168.77781162317842)"/>
<circle cx="70.28552106022835" cy="502.26364713255316" r="32.25685303285718" fill="#8250df"/>
<path d="M1155.1833244655281,383.3692580377683 h10.595177624374628 v10.595177624374628 h10.595177624374628 v10.595177624374628 h-10.595177624374628 v10.595177624374628 h-10.595177624374628 v-10.595177624374628 h-10.595177624374628 v-10.595177624374628 h10.595177624374628 Z" fill="#46a758" transform="rotate(335 1160.4809132777154 399.26202447433025)"/>
<circle cx="58.02557620592415" cy="1137.083085976541" r="20.724277591332793" fill="#8250df"/>
<rect x="1082.8632462322712" y="645.2687882268801" width="51.866190399974585" height="51.866190399974585" fill="#f5a623" transform="rotate(348 1108.7963414322585 671.2018834268674)"/>
<rect x="1019.3313631629571" y="100.62865338474512" width="56.39585120975971" height="56.39585120975971" fill="#46a758" transform="rotate(205 1047.529288767837 128.82657898962498)"/>
<circle cx="1072.154123581946" cy="846.1314950175583" r="17.104733616113663" fill="none" stroke="#f5a623" stroke-width="6.841893446445465"/>
<path d="M1141.518524531275,441.35680515132844 L1162.048807732761,482.4173715543002 L1120.9882413297892,482.4173715543002 Z" fill="#e5484d" transform="rotate(267 1141.518524531275 461.8870883528143)"/>
<path d="M1077.4366645561531,332.1292577376589 L1092.4236568920314,362.10324240941554 L1062.4496722202748,362.10324240941554 Z" fill="#46a758" transform="rotate(171 1077.4366645561531 347.11625007353723)"/>
<path d="M22.693327765290938,116.19019532110542 h20.285560322304566 v20.28556032230457 h20.28556032230457 v20.285560322304566 h-20.28556032230457 v20.28556032230457 h-20.285560322304566 v-20.28556032230457 h-20.28556032230457 v-20.285560322304566 h20.28556032230457 Z" fill="#0d1117" transform="rotate(289 32.83610792644322 146.61853580456227)"/>
<path d="M1106.0791101440166,200.67403170559555 h13.202436595534286 v13.202436595534284 h13.202436595534284 v13.202436595534286 h-13.202436595534284 v13.202436595534284 h-13.202436595534286 v-13.202436595534284 h-13.202436595534284 v-13.202436595534286 h13.202436595534284 Z" fill="#e5484d" transform="rotate(79 1112.6803284417838 220.47768659889698)"/>
<path d="M66.47022205839555,927.2599935894832 h20.942949601138633 v20.94294960113863 h20.94294960113863 v20.942949601138633 h-20.94294960113863 v20.94294960113863 h-20.942949601138633 v-20.94294960113863 h-20.94294960113863 v-20.942949601138633 h20.94294960113863 Z" fill="#f5a623" transform="rotate(307 76.94169685896486 958.6744179911911)"/>
<path d="M144.76226072168598,313.3446677448228 h12.168829063574472 v12.168829063574474 h12.168829063574474 v12.168829063574472 h-12.168829063574474 v12.168829063574474 h-12.168829063574472 v-12.168829063574474 h-12.168829063574474 v-12.168829063574472 h12.168829063574474 Z" fill="#2f81f7" transform="rotate(118 150.84667525347322 331.5979113401845)"/>
<path d="M1138.2987937722355,1050.5063730441034 h10.81039347499609 v10.81039347499609 h10.81039347499609 v10.81039347499609 h-10.81039347499609 v10.81039347499609 h-10.81039347499609 v-10.81039347499609 h-10.81039347499609 v-10.81039347499609 h10.81039347499609 Z" fill="#f5a623" transform="rotate(84 1143.7039905097336 1066.7219632565975)"/>
<rect x="1118.4737833766267" y="708.0510035455227" width="26.289147682487965" height="26.289147682487965" fill="#f5a623" transform="rotate(258 1131.6183572178707 721.1955773867667)"/>
<circle cx="39.20648273918778" cy="742.9969019414857" r="31.22110730689019" fill="#2f81f7"/>
<path d="M51.989587338641286,13.778279032558203 L77.95869935303926,65.71650306135416 L26.020475324243307,65.71650306135416 Z" fill="#8250df" transform="rotate(56 51.989587338641286 39.74739104695618)"/>
<path d="M1113.735292127356,750.1724362438545 h21.66518023982644 v21.66518023982644 h21.66518023982644 v21.66518023982644 h-21.66518023982644 v21.66518023982644 h-21.66518023982644 v-21.66518023982644 h-21.66518023982644 v-21.66518023982644 h21.66518023982644 Z" fill="#8250df" transform="rotate(212 1124.5678822472692 782.6702066035941)"/>
<rect x="1060.1379155758768" y="497.1750247729942" width="55.61944218724966" height="55.61944218724966" fill="#0d1117" transform="rotate(108 1087.9476366695017 524.984745866619)"/>
<circle cx="1098.9177133822814" cy="1169.989373059012" r="20.007391825318336" fill="#2f81f7"/>
<path d="M1082.2400312814862,572.0011946586892 h11.190568318590522 v11.190568318590522 h11.190568318590522 v11.190568318590522 h-11.190568318590522 v11.190568318590522 h-11.190568318590522 v-11.190568318590522 h-11.190568318590522 v-11.190568318590522 h11.190568318590522 Z" fill="#46a758" transform="rotate(150 1087.8353154407814 588.787047136575)"/>
<path d="M54.54847176807622,581.5752897243947 h14.527681613961855 v14.527681613961857 h14.527681613961857 v14.527681613961855 h-14.527681613961857 v14.527681613961857 h-14.527681613961855 v-14.527681613961857 h-14.527681613961857 v-14.527681613961855 h14.527681613961857 Z" fill="#46a758" transform="rotate(139 61.81231257505715 603.3668121453375)"/>
<rect x="978.8027916206047" y="1142.524769410491" width="34.40262924320996" height="34.40262924320996" fill="#0d1117" transform="rotate(78 996.0041062422097 1159.726084032096)"/>
<rect x="126.16587912291288" y="607.6722402805462" width="44.25624957680702" height="44.25624957680702" fill="#8250df" transform="rotate(191 148.2940039113164 629.8003650689498)"/>
<path d="M142.39210193045437,849.9545474443585 L156.1579156871885,877.4861749578267 L128.62628817372024,877.4861749578267 Z" fill="#46a758" transform="rotate(149 142.39210193045437 863.7203612010926)"/>
<path d="M1131.0115871805076,546.2261931858957 h11.762773889427384 v11.762773889427383 h11.762773889427383 v11.762773889427384 h-11.762773889427383 v11.762773889427383 h-11.762773889427384 v-11.762773889427383 h-11.762773889427383 v-11.762773889427384 h11.762773889427383 Z" fill="#f5a623" transform="rotate(84 1136.8929741252214 563.8703540200368)"/>
<circle cx="1157.8081011502072" cy="993.060878851451" r="29.821104832924902" fill="none" stroke="#f5a623" stroke-width="11.92844193316996"/>
<path d="M981.0864140087118,1068.9082518061623 h10.188146896039447 v10.188146896039445 h10.188146896039445 v10.188146896039447 h-10.188146896039445 v10.188146896039445 h-10.188146896039447 v-10.188146896039445 h-10.188146896039445 v-10.188146896039447 h10.188146896039445 Z" fill="#2f81f7" transform="rotate(327 986.1804874567315 1084.1904721502215)"/>
<path d="M54.704332924447954,180.1835352210328 L72.15696733631194,215.08880404476076 L37.25169851258397,215.08880404476076 Z" fill="#0d1117" transform="rotate(292 54.704332924447954 197.63616963289678)"/>
<rect x="1139.2540598819032" y="512.2136669931933" width="26.449452977627516" height="26.449452977627516" fill="#e5484d" transform="rotate(22 1152.478786370717 525.4383934820071)"/>
<rect x="1031.3411004003137" y="242.01163761410862" width="28.715477626770735" height="28.715477626770735" fill="#46a758" transform="rotate(164 1045.698839213699 256.369376427494)"/>
<rect x="136.42078954912722" y="691.4611458666623" width="32.67200183495879" height="32.67200183495879" fill="#0d1117" transform="rotate(31 152.75679046660662 707.7971467841417)"/>
<path d="M164.1115037597095,1029.5992980487645 h18.04173185614248 v18.041731856142484 h18.041731856142484 v18.04173185614248 h-18.041731856142484 v18.041731856142484 h-18.04173185614248 v-18.041731856142484 h-18.041731856142484 v-18.04173185614248 h18.041731856142484 Z" fill="#46a758" transform="rotate(280 173.13236968778074 1056.6618958329782)"/>
<rect x="79.20614474825561" y="410.329862061888" width="33.52855196595192" height="33.52855196595192" fill="#e5484d" transform="rotate(338 95.97042073123157 427.09413804486394)"/>
<path d="M123.15357124153525,221.7448756834492 L149.0276403715834,273.4930139435455 L97.27950211148709,273.4930139435455 Z" fill="#2f81f7" transform="rotate(215 123.15357124153525 247.61894481349736)"/>
<path d="M33.744875008550785,320.45436041336507 h11.13262989682456 v11.132629896824557 h11.132629896824557 v11.13262989682456 h-11.132629896824557 v11.132629896824557 h-11.13262989682456 v-11.132629896824557 h-11.132629896824557 v-11.13262989682456 h11.132629896824557 Z" fill="#46a758" transform="rotate(241 39.31118995696306 337.1533052586019)"/>
<path d="M1116.4912007926032,930.9264835724607 L1135.186739075929,968.3175601391122 L1097.7956625092775,968.3175601391122 Z" fill="#8250df" transform="rotate(355 1116.4912007926032 949.6220218557864)"/>
<path d="M101.20590286888182,21.826302859932184 h12.399129688739777 v12.399129688739777 h12.399129688739777 v12.399129688739777 h-12.399129688739777 v12.399129688739777 h-12.399129688739777 v-12.399129688739777 h-12.399129688739777 v-12.399129688739777 h12.399129688739777 Z" fill="#f5a623" transform="rotate(325 107.40546771325171 40.42499739304185)"/>
<path d="M108.94317958224565,814.8461106503382 L125.62420776486397,848.2081670155749 L92.26215139962733,848.2081670155749 Z" fill="#8250df" transform="rotate(359 108.94317958224565 831.5271388329566)"/>
<circle cx="205.9706660527736" cy="1137.8062144108117" r="20.132379258982837" fill="none" stroke="#46a758" stroke-width="8.052951703593134"/>
<path d="M1118.5578111140057,100.74718833249062 L1135.9670881154016,135.56574233528227 L1101.14853411261,135.56574233528227 Z" fill="#46a758" transform="rotate(206 1118.5578111140057 118.15646533388644)"/>
<circle cx="1049.5287562143058" cy="915.7159621594474" r="23.203463011421263" fill="#2f81f7"/>
<path d="M1040.398404805921,444.49503569863737 L1059.4708351418376,482.6398963704705 L1021.3259744700044,482.6398963704705 Z" fill="#e5484d" transform="rotate(159 1040.398404805921 463.56746603455395)"/>
<circle cx="1049.6760958526284" cy="971.8334803516045" r="18.02245966810733" fill="none" stroke="#f5a623" stroke-width="7.2089838672429325"/>
<path d="M1093.2637847643346,265.4992593433708 L1111.851637664251,302.67496514320374 L1074.675931864418,302.67496514320374 Z" fill="#2f81f7" transform="rotate(151 1093.2637847643346 284.08711224328727)"/>
<circle cx="169.2064706031233" cy="117.23736606072634" r="31.725108648650348" fill="none" stroke="#8250df" stroke-width="12.690043459460139"/>
<circle cx="1059.9306811289862" cy="417.49072738271207" r="24.478827451355755" fill="#e5484d"/>
<path d="M1148.7015933087096,1111.845200148411 L1169.3094080621377,1153.0608296552673 L1128.0937785552815,1153.0608296552673 Z" fill="#2f81f7" transform="rotate(38 1148.7015933087096 1132.4530149018392)"/>
<circle cx="1113.9840502021834" cy="42.73125393781811" r="13.45081686694175" fill="#2f81f7"/>
<path d="M1030.0953101723765,41.975703690201044 h9.504032210757336 v9.504032210757334 h9.504032210757334 v9.504032210757336 h-9.504032210757334 v9.504032210757334 h-9.504032210757336 v-9.504032210757334 h-9.504032210757334 v-9.504032210757336 h9.504032210757334 Z" fill="#8250df" transform="rotate(268 1034.8473262777552 56.23175200633705)"/>
<path d="M128.399457459338,1099.5538751408458 L141.9636030588299,1126.6821663398296 L114.83531185984612,1126.6821663398296 Z" fill="#8250df" transform="rotate(25 128.399457459338 1113.1180207403377)"/>
<path d="M1071.6761288692553,175.9024708075449 h9.856413259481391 v9.85641325948139 h9.85641325948139 v9.856413259481391 h-9.85641325948139 v9.85641325948139 h-9.856413259481391 v-9.85641325948139 h-9.85641325948139 v-9.856413259481391 h9.85641325948139 Z" fill="#46a758" transform="rotate(140 1076.604335498996 190.68709069676697)"/>
<rect x="120.65123116597533" y="1003.3143477635458" width="32.934086326509714" height="32.934086326509714" fill="#0d1117" transform="rotate(272 137.1182743292302 1019.7813909268007)"/>
<circle cx="30.618548488244414" cy="906.4413273017853" r="25.014994313940406" fill="none" stroke="#46a758" stroke-width="10.005997725576162"/>
<rect x="102.28359279129654" y="537.6356096388772" width="28.906548669561744" height="28.906548669561744" fill="#e5484d" transform="rotate(305 116.73686712607741 552.0888839736581)"/>
<circle cx="1118.878901006654" cy="347.3415599530563" r="18.165572320111096" fill="none" stroke="#8250df" stroke-width="7.2662289280444385"/>
<circle cx="49.53949826210737" cy="451.41501061525196" r="16.454200639389455" fill="none" stroke="#e5484d" stroke-width="6.581680255755782"/>
<path d="M1154.414186376147,213.43106917105615 L1168.4036575658247,241.41001155041158 L1140.4247151864693,241.41001155041158 Z" fill="#f5a623" transform="rotate(29 1154.414186376147 227.42054036073387)"/>
<path d="M1047.3035151408985,1028.0559000913054 L1060.7718304647133,1054.9925307389349 L1033.8351998170838,1054.9925307389349 Z" fill="#0d1117" transform="rotate(205 1047.3035151408985 1041.5242154151201)"/>
<rect x="92.1937021650374" y="572.2512260405347" width="27.702679814770818" height="27.702679814770818" fill="#0d1117" transform="rotate(100 106.0450420724228 586.1025659479201)"/>
<circle cx="28.941663212142885" cy="560.3717165254056" r="14.326197632588446" fill="#46a758"/>
<rect x="22.240504154004157" y="245.26691864337772" width="39.71163992211223" height="39.71163992211223" fill="#e5484d" transform="rotate(328 42.09632411506027 265.12273860443383)"/>
<path d="M1034.7275666212663,609.3358828499913 h10.900228384882212 v10.900228384882212 h10.900228384882212 v10.900228384882212 h-10.900228384882212 v10.900228384882212 h-10.900228384882212 v-10.900228384882212 h-10.900228384882212 v-10.900228384882212 h10.900228384882212 Z" fill="#8250df" transform="rotate(84 1040.1776808137074 625.6862254273146)"/>
<circle cx="1068.7072560694069" cy="717.8647357365116" r="23.53751276805997" fill="#f5a623"/>
<circle cx="1131.4239837015048" cy="275.969420815818" r="14.162006356753409" fill="#8250df"/>
<path d="M1041.1827176958323,567.6408262122422 L1054.9552365094423,595.1858638394624 L1027.4101988822222,595.1858638394624 Z" fill="#0d1117" transform="rotate(133 1041.1827176958323 581.4133450258523)"/>
<path d="M134.92458037566394,900.4400963261724 L160.94580589048564,952.4825473558158 L108.90335486084223,952.4825473558158 Z" fill="#8250df" transform="rotate(62 134.92458037566394 926.4613218409941)"/>
<path d="M152.0243798106288,953.2171012703329 h9.488865697135529 v9.488865697135527 h9.488865697135527 v9.488865697135529 h-9.488865697135527 v9.488865697135527 h-9.488865697135529 v-9.488865697135527 h-9.488865697135527 v-9.488865697135529 h9.488865697135527 Z" fill="#2f81f7" transform="rotate(162 156.76881265919656 967.4503998160362)"/>
<rect x="1048.0652407705784" y="754.3736956110224" width="29.602562937885523" height="29.602562937885523" fill="#0d1117" transform="rotate(233 1062.8665222395211 769.1749770799652)"/>
<rect x="1100.004800855182" y="146.72271262668073" width="35.72573606297374" height="35.72573606297374" fill="#46a758" transform="rotate(250 1117.867668886669 164.5855806581676)"/>
<path d="M111.31249096555014,773.8177566435188 h9.154608958711227 v9.154608958711226 h9.154608958711226 v9.154608958711227 h-9.154608958711226 v9.154608958711226 h-9.154608958711227 v-9.154608958711226 h-9.154608958711226 v-9.154608958711227 h9.154608958711226 Z" fill="#e5484d" transform="rotate(130 115.88979544490576 787.5496700815856)"/>
<circle cx="55.079222596250474" cy="804.6003468269482" r="21.049581958912313" fill="#46a758"/>
<path d="M96.55934413708746,96.18891865480691 L112.66563556157053,128.40150150377303 L80.4530527126044,128.40150150377303 Z" fill="#0d1117" transform="rotate(44 96.55934413708746 112.29521007928997)"/>
<path d="M116.13516433816403,355.72140885610133 L135.32595725171268,394.10299468319863 L96.94437142461538,394.10299468319863 Z" fill="#2f81f7" transform="rotate(203 116.13516433816403 374.91220176965)"/>
<circle cx="26.566173053346574" cy="659.9970182115212" r="29.520352587103844" fill="#8250df"/>
<path d="M137.88992413350692,494.67986324056983 h15.917235502352318 v15.917235502352316 h15.917235502352316 v15.917235502352318 h-15.917235502352316 v15.917235502352316 h-15.917235502352318 v-15.917235502352316 h-15.917235502352316 v-15.917235502352318 h15.917235502352316 Z" fill="#e5484d" transform="rotate(94 145.84854188468307 518.5557164940983)"/>
<path d="M78.75318114490558,648.5488689513877 h12.507196274896463 v12.507196274896462 h12.507196274896462 v12.507196274896463 h-12.507196274896462 v12.507196274896462 h-12.507196274896463 v-12.507196274896462 h-12.507196274896462 v-12.507196274896463 h12.507196274896462 Z" fill="#46a758" transform="rotate(119 85.00677928235382 667.3096633637324)"/>
<circle cx="117.66761193890125" cy="1153.9296563901007" r="21.62963803112507" fill="none" stroke="#e5484d" stroke-width="8.651855212450027"/>
<path d="M1172.4301807722077,109.59618578106165 L1205.2004379238933,175.13670008443296 L1139.659923620522,175.13670008443296 Z" fill="#0d1117" transform="rotate(255 1172.4301807722077 142.3664429327473)"/>
<circle cx="1115.4359621163458" cy="620.6430198187009" r="16.98308047093451" fill="none" stroke="#e5484d" stroke-width="6.793232188373804"/>
<rect x="73.08310785796493" y="862.6676140837371" width="45.637106861919165" height="45.637106861919165" fill="#46a758" transform="rotate(327 95.90166128892452 885.4861675146967)"/>
<circle cx="1046.0201899809763" cy="214.26420488860458" r="14.443746988661587" fill="none" stroke="#f5a623" stroke-width="5.777498795464635"/>
<path d="M1151.7588094001014,846.7613563193008 h12.963393052419027 v12.963393052419026 h12.963393052419026 v12.963393052419027 h-12.963393052419026 v12.963393052419026 h-12.963393052419027 v-12.963393052419026 h-12.963393052419026 v-12.963393052419027 h12.963393052419026 Z" fill="#0d1117" transform="rotate(153 1158.240505926311 866.2064458979294)"/>
<circle cx="1163.7500925585628" cy="336.68831467535347" r="18.350877987220883" fill="none" stroke="#46a758" stroke-width="7.3403511948883535"/>
<path d="M62.61737275496125,1066.8079914934933 h14.729799449443817 v14.729799449443817 h14.729799449443817 v14.729799449443817 h-14.729799449443817 v14.729799449443817 h-14.729799449443817 v-14.729799449443817 h-14.729799449443817 v-14.729799449443817 h14.729799449443817 Z" fill="#2f81f7" transform="rotate(65 69.98227247968316 1088.902690667659)"/>
<path d="M89.80944298021495,739.3480491470546 L103.21043785195798,766.1500388905406 L76.40844810847193,766.1500388905406 Z" fill="#2f81f7" transform="rotate(230 89.80944298021495 752.7490440187976)"/>
<circle cx="1041.2969781104475" cy="1144.2387736095116" r="19.833715718239546" fill="none" stroke="#46a758" stroke-width="7.9334862872958185"/>
<circle cx="170.4006306324154" cy="1105.6517728203908" r="13.312328673899174" fill="none" stroke="#e5484d" stroke-width="5.32493146955967"/>
<circle cx="1156.418343952857" cy="929.2565592778847" r="13.836656773462892" fill="none" stroke="#f5a623" stroke-width="5.534662709385157"/>
<circle cx="1163.6656613936648" cy="597.3579748207703" r="15.837934326380491" fill="none" stroke="#8250df" stroke-width="6.335173730552197"/>
<path d="M1100.1512622730806,438.4830079358071 L1115.1755960155278,468.5316754207015 L1085.1269285306334,468.5316754207015 Z" fill="#0d1117" transform="rotate(345 1100.1512622730806 453.5073416782543)"/>
<path d="M1159.8622495283682,620.7654333310202 h15.529167103891572 v15.52916710389157 h15.52916710389157 v15.529167103891572 h-15.52916710389157 v15.52916710389157 h-15.529167103891572 v-15.52916710389157 h-15.52916710389157 v-15.529167103891572 h15.52916710389157 Z" fill="#2f81f7" transform="rotate(159 1167.626833080314 644.0591839868575)"/>
<path d="M71.96007547713816,546.018143704161 h9.619952065870166 v9.619952065870166 h9.619952065870166 v9.619952065870166 h-9.619952065870166 v9.619952065870166 h-9.619952065870166 v-9.619952065870166 h-9.619952065870166 v-9.619952065870166 h9.619952065870166 Z" fill="#e5484d" transform="rotate(309 76.77005151007324 560.4480718029663)"/>
<circle cx="63.963332410901785" cy="387.58391397167" r="20.842680420726538" fill="none" stroke="#46a758" stroke-width="8.337072168290614"/>
<path d="M91.16955166651557,994.250270052813 h9.638339695210258 v9.63833969521026 h9.63833969521026 v9.638339695210258 h-9.63833969521026 v9.63833969521026 h-9.638339695210258 v-9.63833969521026 h-9.63833969521026 v-9.638339695210258 h9.63833969521026 Z" fill="#46a758" transform="rotate(145 95.9887215141207 1008.7077795956284)"/>
<path d="M145.83460700977594,390.13756009284407 L162.5391130382195,423.5465721497312 L129.13010098133236,423.5465721497312 Z" fill="#2f81f7" transform="rotate(216 145.83460700977594 406.84206612128764)"/>
<path d="M1082.7348412430536,74.57133246771991 h10.58151636707286 v10.581516367072862 h10.581516367072862 v10.58151636707286 h-10.581516367072862 v10.581516367072862 h-10.58151636707286 v-10.581516367072862 h-10.581516367072862 v-10.58151636707286 h10.581516367072862 Z" fill="#0d1117" transform="rotate(303 1088.02559942659 90.4436070183292)"/>
<rect x="203.07011733017862" y="1082.9089669715613" width="29.95986182615161" height="29.95986182615161" fill="#2f81f7" transform="rotate(30 218.05004824325442 1097.8888978846371)"/>
<path d="M113.95877497922629,448.42891844175756 L131.31209364533424,483.13555577397346 L96.60545631311834,483.13555577397346 Z" fill="#e5484d" transform="rotate(83 113.95877497922629 465.7822371078655)"/>
<rect x="1028.787472775206" y="354.30457033682615" width="32.6358030308038" height="32.6358030308038" fill="#8250df" transform="rotate(108 1045.1053742906079 370.62247185222805)"/>
<rect x="1147.1175457565114" y="805.980261654593" width="31.329720862209797" height="31.329720862209797" fill="#2f81f7" transform="rotate(241 1162.7824061876163 821.645122085698)"/>
<text x="600" y="84" text-anchor="middle" font-family="Arial, sans-serif" font-size="50" font-weight="bold" fill="#0d1117">HIIBRARAHMAD</text>
<text x="600" y="138" text-anchor="middle" font-family="Arial, sans-serif" font-size="32" fill="#2f81f7" font-weight="bold">SCAN WITH YOUR CAMERA — AR INSIDE</text>
<text x="600" y="1092" text-anchor="middle" font-family="Arial, sans-serif" font-size="30" fill="#57606a">Keep the code in view after scanning</text>
<text x="600" y="1138" text-anchor="middle" font-family="Consolas, monospace" font-size="26" fill="#8b949e">hiibrarahmad.github.io/QAR/</text>
</svg>